<svg xmlns="http://www.w3.org/2000/svg" xmlns:xlink="http://www.w3.org/1999/xlink" width="500" zoomAndPan="magnify" viewBox="0 0 375 374.999991" height="500" preserveAspectRatio="xMidYMid meet" version="1.0"><defs><clipPath id="bbddee74e0"><path d="M 74.609375 282.234375 L 252.785156 282.234375 L 252.785156 327.660156 L 74.609375 327.660156 Z M 74.609375 282.234375 " clip-rule="nonzero"/></clipPath><clipPath id="47fc46fbf8"><path d="M 74.609375 47.160156 L 300.277344 47.160156 L 300.277344 327.503906 L 74.609375 327.503906 Z M 74.609375 47.160156 " clip-rule="nonzero"/></clipPath><clipPath id="d60e00cd05"><path d="M 256.414062 276 L 265 276 L 265 290 L 256.414062 290 Z M 256.414062 276 " clip-rule="nonzero"/></clipPath><clipPath id="342c954c91"><path d="M 275 276 L 283.414062 276 L 283.414062 290 L 275 290 Z M 275 276 " clip-rule="nonzero"/></clipPath><clipPath id="fd566d3173"><path d="M 266 273.070312 L 275 273.070312 L 275 291.820312 L 266 291.820312 Z M 266 273.070312 " clip-rule="nonzero"/></clipPath></defs><g clip-path="url(#bbddee74e0)"><path fill="#004aad" d="M 252.699219 283.71875 C 239.875 283.695312 232.867188 288.15625 226.449219 292.242188 C 218.882812 297.054688 212.097656 301.375 198.046875 297.820312 C 197.753906 297.746094 196.902344 297.472656 195.621094 297.058594 C 188.429688 294.734375 167.261719 287.902344 155.238281 287.75 C 149.335938 287.675781 147.167969 288.925781 147.148438 290.808594 C 147.097656 294.9375 155.320312 302.167969 160.183594 306.441406 L 160.1875 306.441406 C 161.460938 307.5625 162.511719 308.484375 163.175781 309.152344 C 167.804688 313.792969 169.367188 318.179688 168.816406 321.382812 C 168.515625 323.121094 167.613281 324.515625 166.242188 325.445312 C 164.910156 326.339844 163.15625 326.78125 161.105469 326.640625 C 156.019531 326.285156 148.957031 322.285156 142.183594 312.613281 C 140.003906 309.507812 137.875 306.476562 135.617188 304.4375 C 133.496094 302.515625 131.238281 301.464844 128.675781 302.09375 C 124.632812 303.078125 124.054688 306.863281 123.417969 311.027344 C 122.71875 315.636719 121.953125 320.664062 116.890625 323.667969 C 112.292969 326.394531 108.445312 325.699219 104.472656 324.988281 C 101.492188 324.453125 98.441406 323.90625 95.011719 324.953125 C 91.554688 326.015625 87.960938 326.980469 84.304688 327.480469 C 81.101562 327.917969 77.855469 327.996094 74.609375 327.464844 L 75.664062 325.878906 C 78.46875 326.246094 81.285156 326.152344 84.074219 325.773438 C 87.625 325.285156 91.132812 324.339844 94.511719 323.304688 C 98.335938 322.136719 101.597656 322.722656 104.777344 323.292969 C 108.421875 323.949219 111.960938 324.585938 116.011719 322.179688 C 120.367188 319.597656 121.066406 314.992188 121.710938 310.773438 C 122.433594 306.003906 123.09375 301.679688 128.273438 300.414062 C 131.492188 299.628906 134.238281 300.867188 136.773438 303.15625 C 139.175781 305.328125 141.363281 308.441406 143.59375 311.625 C 150.023438 320.808594 156.574219 324.59375 161.21875 324.914062 C 162.871094 325.03125 164.261719 324.695312 165.277344 324.011719 C 166.25 323.351562 166.898438 322.347656 167.113281 321.089844 C 167.578125 318.390625 166.140625 314.566406 161.953125 310.367188 C 161.371094 309.785156 160.324219 308.859375 159.046875 307.738281 C 153.960938 303.269531 145.363281 295.710938 145.425781 290.789062 C 145.460938 287.878906 148.09375 285.941406 155.261719 286.027344 C 167.550781 286.179688 188.894531 293.074219 196.144531 295.414062 C 197.375 295.8125 198.191406 296.074219 198.46875 296.144531 C 211.800781 299.519531 218.289062 295.390625 225.519531 290.789062 C 229.601562 288.195312 233.90625 285.453125 239.722656 283.734375 C 244.035156 282.464844 249.738281 282.097656 252.699219 283.71875 " fill-opacity="1" fill-rule="nonzero"/></g><g clip-path="url(#47fc46fbf8)"><path fill="#004aad" d="M 93.6875 298.757812 C 86.152344 290.652344 90.5625 272.914062 93.273438 262.65625 C 97.007812 249.535156 101.457031 237.757812 106.199219 228.914062 C 113.816406 224.324219 144.859375 212.148438 167.3125 173.304688 L 140.679688 185.242188 C 173.503906 163.605469 195.640625 122.800781 236.605469 100.738281 C 236.605469 100.738281 208.84375 102.042969 194.101562 112.355469 C 194.101562 112.355469 211.335938 97.710938 254.855469 91.316406 L 238.597656 83.265625 L 260.769531 86.152344 C 260.769531 86.152344 271.554688 60.117188 300.363281 50.566406 C 300.363281 50.566406 197.988281 26.695312 163.625 105.351562 C 163.625 105.351562 169.792969 85.867188 179.246094 69.074219 C 179.246094 69.074219 131.109375 79.355469 108.003906 145.125 C 108.003906 145.125 113.546875 118.132812 119.417969 106.101562 C 119.417969 106.101562 89.835938 132.550781 91.078125 184.960938 C 91.078125 184.960938 84.238281 167.304688 86.058594 152.597656 C 86.058594 152.597656 62.21875 185.046875 91.777344 222.023438 C 95.644531 213.394531 133.300781 125.691406 191.351562 95.675781 C 122.050781 146.9375 83.632812 243.261719 74.609375 327.464844 L 93.6875 298.757812 " fill-opacity="1" fill-rule="evenodd"/></g><g clip-path="url(#d60e00cd05)"><path fill="#004aad" d="M 263.292969 289.378906 C 262.894531 289.378906 262.625 289.246094 262.359375 288.976562 L 257.011719 283.628906 C 256.476562 283.09375 256.476562 282.292969 257.011719 281.757812 L 262.359375 276.410156 C 262.894531 275.875 263.695312 275.875 264.230469 276.410156 C 264.765625 276.945312 264.765625 277.746094 264.230469 278.28125 L 259.816406 282.695312 L 264.230469 287.105469 C 264.765625 287.640625 264.765625 288.441406 264.230469 288.976562 C 263.960938 289.246094 263.695312 289.378906 263.292969 289.378906 Z M 263.292969 289.378906 " fill-opacity="1" fill-rule="nonzero"/></g><g clip-path="url(#342c954c91)"><path fill="#004aad" d="M 276.664062 289.378906 C 276.261719 289.378906 275.996094 289.246094 275.726562 288.976562 C 275.191406 288.441406 275.191406 287.640625 275.726562 287.105469 L 280.140625 282.695312 L 275.726562 278.28125 C 275.191406 277.746094 275.191406 276.945312 275.726562 276.410156 C 276.261719 275.875 277.066406 275.875 277.597656 276.410156 L 282.945312 281.757812 C 283.480469 282.292969 283.480469 283.09375 282.945312 283.628906 L 277.597656 288.976562 C 277.332031 289.246094 277.066406 289.378906 276.664062 289.378906 Z M 276.664062 289.378906 " fill-opacity="1" fill-rule="nonzero"/></g><g clip-path="url(#fd566d3173)"><path fill="#004aad" d="M 267.304688 292.054688 C 267.171875 292.054688 267.039062 292.054688 266.902344 291.917969 C 266.234375 291.652344 265.835938 290.984375 266.101562 290.179688 L 271.449219 274.136719 C 271.71875 273.46875 272.386719 273.070312 273.1875 273.335938 C 273.855469 273.601562 274.257812 274.273438 273.988281 275.074219 L 268.640625 291.117188 C 268.375 291.652344 267.839844 292.054688 267.304688 292.054688 Z M 267.304688 292.054688 " fill-opacity="1" fill-rule="nonzero"/></g></svg>